<?xml version="1.0" encoding="UTF-8" standalone="no"?>
<svg
   xmlns:dc="http://purl.org/dc/elements/1.1/"
   xmlns:cc="http://creativecommons.org/ns#"
   xmlns:rdf="http://www.w3.org/1999/02/22-rdf-syntax-ns#"
   xmlns:svg="http://www.w3.org/2000/svg"
   xmlns="http://www.w3.org/2000/svg"
   xmlns:sodipodi="http://sodipodi.sourceforge.net/DTD/sodipodi-0.dtd"
   xmlns:inkscape="http://www.inkscape.org/namespaces/inkscape"
   version="1.0"
   width="25.000000pt"
   height="25.000000pt"
   viewBox="0 0 50.000000 50.000000"
   preserveAspectRatio="xMidYMid meet"
   id="svg3474"
   inkscape:version="0.91 r13725"
   sodipodi:docname="Info-64.svg">
  <defs
     id="defs3484" />
  <sodipodi:namedview
     pagecolor="#ffffff"
     bordercolor="#666666"
     borderopacity="1"
     objecttolerance="10"
     gridtolerance="10"
     guidetolerance="10"
     inkscape:pageopacity="0"
     inkscape:pageshadow="2"
     inkscape:window-width="1045"
     inkscape:window-height="683"
     id="namedview3482"
     showgrid="false"
     inkscape:zoom="5.3400704"
     inkscape:cx="29.756932"
     inkscape:cy="24.268965"
     inkscape:window-x="2531"
     inkscape:window-y="50"
     inkscape:window-maximized="0"
     inkscape:current-layer="svg3474" />
  <metadata
     id="metadata3476">
Created by potrace 1.13, written by Peter Selinger 2001-2015
<rdf:RDF>
  <cc:Work
     rdf:about="">
    <dc:format>image/svg+xml</dc:format>
    <dc:type
       rdf:resource="http://purl.org/dc/dcmitype/StillImage" />
  </cc:Work>
</rdf:RDF>
</metadata>
  <g
     transform="translate(0.000000,50.000000) scale(0.100000,-0.100000)"
     fill="#000000"
     stroke="none"
     id="g3478">
    <path
       d="M165 433 c-153 -80 -155 -286 -3 -364 73 -37 179 -18 234 43 93 101 64 256 -58 319 -46 23 -131 25 -173 2z m170 -36 c112 -63 112 -231 0 -294 -81 -46 -186 -18 -233 62 -30 52 -27 136 7 183 49 70 151 92 226 49z"
       id="path3480" />
  </g>
  <g
     transform="matrix(0.95932397,0,0,0.95453951,0.39173046,-8.7010983)"
     style="font-style:normal;font-weight:normal;font-size:6.25px;line-height:125%;font-family:sans-serif;letter-spacing:0px;word-spacing:0px;fill:#000000;fill-opacity:1;stroke:none;stroke-width:1px;stroke-linecap:butt;stroke-linejoin:miter;stroke-opacity:1"
     id="flowRoot3488">
    <path
       d="m 32.332031,42.731778 -2.060547,0 -1.425781,-4.052735 -6.289062,0 -1.425782,4.052735 -1.96289,0 5.292968,-14.541016 2.578125,0 5.292969,14.541016 z M 28.25,37.018887 l -2.548828,-7.138672 -2.558594,7.138672 5.107422,0 z"
       style="font-size:20px"
       id="path3506"
       inkscape:connector-curvature="0" />
  </g>
</svg>
