<?xml version="1.0" encoding="UTF-8" standalone="no"?>
<svg
   xmlns:dc="http://purl.org/dc/elements/1.1/"
   xmlns:cc="http://creativecommons.org/ns#"
   xmlns:rdf="http://www.w3.org/1999/02/22-rdf-syntax-ns#"
   xmlns:svg="http://www.w3.org/2000/svg"
   xmlns="http://www.w3.org/2000/svg"
   xmlns:sodipodi="http://sodipodi.sourceforge.net/DTD/sodipodi-0.dtd"
   xmlns:inkscape="http://www.inkscape.org/namespaces/inkscape"
   version="1.0"
   width="25.000000pt"
   height="25.000000pt"
   viewBox="0 0 50.000000 50.000000"
   preserveAspectRatio="xMidYMid meet"
   id="svg3474"
   inkscape:version="0.91 r13725"
   sodipodi:docname="event.svg">
  <defs
     id="defs3484" />
  <sodipodi:namedview
     pagecolor="#ffffff"
     bordercolor="#666666"
     borderopacity="1"
     objecttolerance="10"
     gridtolerance="10"
     guidetolerance="10"
     inkscape:pageopacity="0"
     inkscape:pageshadow="2"
     inkscape:window-width="1920"
     inkscape:window-height="1017"
     id="namedview3482"
     showgrid="false"
     inkscape:zoom="6.84"
     inkscape:cx="-14.216428"
     inkscape:cy="28.149305"
     inkscape:window-x="1912"
     inkscape:window-y="-8"
     inkscape:window-maximized="1"
     inkscape:current-layer="flowRoot3488" />
  <metadata
     id="metadata3476">
Created by potrace 1.13, written by Peter Selinger 2001-2015
<rdf:RDF>
  <cc:Work
     rdf:about="">
    <dc:format>image/svg+xml</dc:format>
    <dc:type
       rdf:resource="http://purl.org/dc/dcmitype/StillImage" />
  </cc:Work>
</rdf:RDF>
</metadata>
  <g
     transform="translate(0.000000,50.000000) scale(0.100000,-0.100000)"
     fill="#000000"
     stroke="none"
     id="g3478">
    <path
       d="M165 433 c-153 -80 -155 -286 -3 -364 73 -37 179 -18 234 43 93 101 64 256 -58 319 -46 23 -131 25 -173 2z m170 -36 c112 -63 112 -231 0 -294 -81 -46 -186 -18 -233 62 -30 52 -27 136 7 183 49 70 151 92 226 49z"
       id="path3480" />
  </g>
  <g
     transform="matrix(1.075603,0,0,1.0427514,-2.5046742,-12.59482)"
     style="font-style:normal;font-weight:normal;font-size:6.25px;line-height:125%;font-family:sans-serif;letter-spacing:0px;word-spacing:0px;fill:#000000;fill-opacity:1;stroke:none;stroke-width:1px;stroke-linecap:butt;stroke-linejoin:miter;stroke-opacity:1"
     id="flowRoot3488">
    <text
       xml:space="preserve"
       style="font-style:normal;font-weight:normal;font-size:5.2250495px;line-height:125%;font-family:sans-serif;letter-spacing:0px;word-spacing:0px;fill:#000000;fill-opacity:1;stroke:none;stroke-width:1px;stroke-linecap:butt;stroke-linejoin:miter;stroke-opacity:1"
       x="19.629515"
       y="26.901407"
       id="text3508"
       sodipodi:linespacing="125%"
       transform="scale(0.99750322,1.002503)"><tspan
         sodipodi:role="line"
         id="tspan3510"
         x="19.629515"
         y="26.901407" /></text>
    <flowRoot
       xml:space="preserve"
       id="flowRoot3339"
       style="font-style:normal;font-weight:normal;font-size:20px;line-height:125%;font-family:sans-serif;letter-spacing:0px;word-spacing:0px;fill:#000000;fill-opacity:1;stroke:none;stroke-width:1px;stroke-linecap:butt;stroke-linejoin:miter;stroke-opacity:1"
       transform="matrix(1.4875377,0,0,1.5344022,2.3286233,12.078449)"><flowRegion
         id="flowRegion3341"><rect
           id="rect3343"
           width="8.270256"
           height="11.991869"
           x="9.0972805"
           y="8.5067997"
           style="font-size:20px" /></flowRegion><flowPara
         id="flowPara3345">FF</flowPara></flowRoot>    <g
       transform="matrix(0.98461034,0,0,1.0156302,-0.86990508,-0.2243278)"
       style="font-style:normal;font-weight:normal;font-size:9.44242668px;line-height:125%;font-family:sans-serif;letter-spacing:0px;word-spacing:0px;fill:#000000;fill-opacity:1;stroke:none;stroke-width:1px;stroke-linecap:butt;stroke-linejoin:miter;stroke-opacity:1"
       id="text3347">
      <path
         d="m 31.844688,29.856013 -7.637853,0 0,4.260157 6.56267,0 0,1.785209 -6.56267,0 0,7.272697 -2.00836,0 0,-15.103272 9.646213,0 0,1.785209 z"
         style="font-size:20.77333832px"
         id="path3352"
         inkscape:connector-curvature="0" />
    </g>
  </g>
</svg>
