<svg version="1.0" xmlns="http://www.w3.org/2000/svg"
 width="25.000000pt" height="25.000000pt" viewBox="0 0 50.000000 50.000000">
<g transform="translate(0.000000,50.000000) scale(0.100000,-0.100000)"
fill="#000000" stroke="none">
<path d="M141 346 c-62 -62 -99 -106 -92 -110 6 -4 16 -4 21 -1 6 4 10 -27 10
-84 l0 -91 70 0 70 0 0 80 0 80 30 0 30 0 0 -80 0 -80 70 0 70 0 0 91 c0 57 4
88 10 84 6 -3 15 -3 21 1 7 4 -30 48 -92 110 -57 57 -106 104 -109 104 -3 0
-52 -47 -109 -104z m181 -3 l68 -67 0 -94 0 -93 -37 3 -38 3 -3 78 -3 77 -59
0 -59 0 -3 -77 -3 -78 -37 -3 -38 -3 0 93 0 92 67 68 c37 38 70 68 72 68 3 0
36 -30 73 -67z"/>
</g>
</svg>